<svg xmlns="http://www.w3.org/2000/svg" xmlns:xlink="http://www.w3.org/1999/xlink"
     width="518" height="102" viewBox="0 0 518 102">
  <defs>
<path id="font_2_51" d="M.46679688 .11816406C.45572917 .10384115 .44010417 .08951823 .41992188 .07519531 .3997396 .060872396 .37695313 .048014326 .3515625 .036621095 .32617188 .025227866 .29882813 .015950522 .26953126 .0087890629 .24023438 .0016276041 .2109375-.0021158856 .18164063-.0024414063 .15234375-.002766927 .123697917 .0006510417 .095703128 .0078125 .067708339 .014973958 .04264323 .027669272 .020507813 .045898439 .0126953129 .051757814 .008300781 .05891927 .0073242189 .06738281 .0063476564 .07584635 .0076497399 .08365885 .011230469 .09082031 .014811198 .09798177 .020019532 .103027347 .026855469 .10595703 .033691408 .10888672 .040690107 .107421878 .047851564 .1015625 .0764974 .078125 .10970052 .064941409 .14746094 .06201172 .18522136 .05908203 .22298177 .06298828 .2607422 .07373047 .2985026 .084472659 .33398438 .10058594 .3671875 .12207031 .40039063 .14355469 .4267578 .16666667 .44628907 .19140625 .44108073 .2233073 .4361979 .26204429 .43164063 .3076172 .42708335 .3531901 .42447917 .4008789 .42382813 .4506836 .4231771 .5004883 .42513023 .54996749 .4296875 .5991211 .43424479 .6482747 .4428711 .6928711 .4555664 .73291018 .46826173 .7729492 .4856771 .80582687 .5078125 .83154299 .52994796 .8572591 .55826827 .87141928 .59277346 .87402346 .6194661 .87597659 .6409505 .8691406 .65722659 .8535156 .6735026 .8378906 .6853841 .81624349 .6928711 .7885742 .7003581 .76090499 .70377609 .7285156 .703125 .69140627 .70247396 .6542969 .69889327 .6152344 .6923828 .57421877 .6858724 .5332031 .6769206 .49169923 .66552737 .44970704 .6541341 .40771485 .6411133 .3680013 .62646487 .3305664 .6118164 .2931315 .5960286 .25927735 .57910159 .2290039 .5621745 .19873047 .5452474 .17480469 .5283203 .15722656 .5309245 .14355469 .5341797 .12532552 .53808596 .10253906 .5419922 .0797526 .546875 .0546875 .5527344 .02734375 .55859377 0 .5657552-.028320313 .57421877-.057617189 .5826823-.08691406 .59244796-.11425781 .6035156-.13964844 .6145833-.16503906 .6271159-.18766277 .6411133-.20751953 .65511068-.2273763 .67073568-.24153646 .6879883-.25 .7052409-.25846354 .7244466-.26009117 .74560549-.2548828 .76676437-.24967449 .78971359-.23502605 .8144531-.2109375 .8261719-.21484375 .8339844-.22070313 .8378906-.22851563 .8417969-.23632813 .84309896-.24430339 .8417969-.2524414 .8404948-.26057945 .83723959-.26839195 .83203127-.2758789 .82682296-.28336589 .82096359-.28873698 .8144531-.2919922 .78059896-.31347657 .7498372-.32552085 .72216799-.328125 .6944987-.33072917 .6694336-.32552085 .64697268-.3125 .6245117-.29947917 .6041667-.2796224 .5859375-.2529297 .5677083-.22623699 .55126956-.19417317 .5366211-.15673828 .52197268-.11930338 .50895187-.077311199 .4975586-.030761719 .48616538 .01578776 .47591148 .06542969 .46679688 .11816406M.59277346 .80078127C.569987 .8001302 .5514323 .78841146 .5371094 .765625 .52278646 .74283859 .51171877 .7137044 .50390627 .67822268 .49609376 .6427409 .4908854 .6035156 .48828126 .5605469 .4856771 .5175781 .48486329 .47558595 .48583985 .4345703 .4868164 .3935547 .48893229 .35595704 .4921875 .32177735 .49544273 .28759767 .49902345 .26171876 .5029297 .24414063 .5179036 .25976563 .5332031 .28450523 .5488281 .31835938 .5644531 .35221354 .5786133 .3898112 .5913086 .43115235 .6040039 .4724935 .6147461 .51497396 .62353518 .55859377 .6323242 .60221359 .63753256 .64208987 .63916018 .67822268 .6407878 .71435549 .6380208 .7438151 .6308594 .76660159 .62369796 .789388 .6110026 .80078127 .59277346 .80078127Z"/>
<path id="font_2_31" d="M.01953125 .08300781C.01953125 .09928385 .02327474 .12141927 .030761719 .14941406 .0382487 .17740886 .048665365 .20800781 .06201172 .24121094 .07535807 .27441407 .09082031 .30794273 .10839844 .34179688 .12597656 .37565104 .14469402 .40625 .16455078 .43359376 .18440755 .4609375 .20524089 .48339845 .22705078 .50097659 .24886067 .5185547 .27018229 .52734377 .29101563 .52734377 .296875 .52734377 .30371095 .52685549 .31152345 .5258789 .31933595 .52490237 .3268229 .5229492 .33398438 .52001956 .34114585 .51708987 .34716798 .5131836 .35205079 .5083008 .3569336 .50341799 .359375 .49674479 .359375 .48828126 .36393229 .45507813 .36783854 .41861979 .37109376 .37890626 .37434898 .33919273 .37695313 .29899089 .37890626 .25830079 .38085938 .21761067 .38232423 .17789714 .38330079 .13916016 .38427735 .10042318 .38476563 .06575521 .38476563 .03515625 .38606773 .029296875 .3839518 .02327474 .37841798 .017089844 .37288413 .010904948 .3663737 .0068359377 .35888673 .0048828127 .35139976 .0029296876 .34375 .004231771 .3359375 .0087890629 .328125 .0133463549 .32259117 .0234375 .31933595 .0390625L.32226563 .27246095C.31640626 .24772136 .30615235 .22021485 .2915039 .1899414 .27685548 .15966797 .2591146 .13085938 .23828125 .103515628 .21744792 .076171878 .19401042 .052408857 .16796875 .032226564 .14192708 .0120442709 .114583339-.0009765625 .0859375-.0068359377 .07356771-.0068359377 .06315104-.0040690104 .0546875 .0014648438 .046223958 .0069986979 .03938802 .014160156 .034179689 .022949219 .028971354 .03173828 .025227866 .041341146 .022949219 .051757814 .020670573 .06217448 .01953125 .07259115 .01953125 .08300781M.2919922 .4580078C.27311198 .45540367 .25358073 .4436849 .23339844 .42285157 .21321614 .40201823 .19384766 .37679038 .17529297 .34716798 .15673828 .31754557 .14013672 .28597007 .12548828 .2524414 .110839847 .21891277 .09944662 .18766277 .091308597 .1586914 .08317057 .12972005 .07910156 .10579427 .07910156 .08691406 .07910156 .06803385 .084635417 .05859375 .095703128 .05859375 .12434896 .0703125 .15185547 .09163412 .17822266 .122558597 .20458985 .15348308 .22721355 .18847656 .24609375 .22753906 .26497398 .26660157 .27897135 .30680339 .28808595 .34814454 .29720054 .3894857 .2985026 .42610679 .2919922 .4580078Z"/>
<path id="font_2_19" d="M.0390625 .4345703C.033854169 .43391929 .028971354 .43603517 .024414063 .44091798 .019856772 .44580079 .016601563 .4518229 .0146484379 .45898438 .0126953129 .46614585 .012858073 .47379557 .015136719 .4819336 .017415366 .49007163 .022460938 .4970703 .030273438 .5029297L.2265625 .5361328 .24902344 .8613281C.25227867 .8691406 .25716148 .8751628 .26367188 .87939456 .27018229 .8836263 .27685548 .8855794 .2836914 .8852539 .29052735 .8849284 .29654948 .8823242 .3017578 .8774414 .30696617 .8725586 .30989585 .8649089 .31054688 .8544922L.29492188 .55566409 .49609376 .5888672C.50390627 .5882161 .5100911 .58528646 .51464846 .5800781 .51920577 .5748698 .52197268 .56884768 .5229492 .5620117 .5239258 .5551758 .5232747 .54833987 .5209961 .5415039 .51871749 .53466799 .51497396 .5289714 .5097656 .52441409L.29492188 .48535157C.29361979 .46451823 .29182945 .43798829 .28955079 .40576173 .28727214 .37353517 .28548179 .33821617 .2841797 .2998047 .2828776 .26139323 .2828776 .22086589 .2841797 .17822266 .28548179 .13557942 .28873698 .09342448 .2939453 .051757814 .29915367 .0100911459 .30696617-.029622397 .3173828-.06738281 .32779948-.10514323 .34179688-.13867188 .359375-.16796875 .37695313-.19726563 .39876304-.22086589 .4248047-.23876953 .45084635-.2566732 .48209635-.26627604 .5185547-.26757813 .57389327-.26302085 .6180013-.24560547 .6508789-.21533203 .68375656-.1850586 .7011719-.1438802 .703125-.091796878 .70377609-.08268229 .70735678-.076171878 .7138672-.072265628 .7203776-.068359378 .72770187-.06689453 .73583987-.067871097 .74397787-.068847659 .75146487-.07210287 .7583008-.07763672 .7651367-.08317057 .76920577-.09082031 .7705078-.10058594 .7711589-.13769531 .7626953-.1710612 .7451172-.2006836 .72753909-.23030599 .7057292-.2553711 .6796875-.2758789 .6536458-.29638673 .62565109-.3116862 .5957031-.32177735 .5657552-.3318685 .53808596-.33626304 .5126953-.33496095 .4560547-.33496095 .40934245-.32063804 .3725586-.2919922 .33577476-.26334635 .30647788-.22591146 .28466798-.1796875 .26285807-.13346355 .24707031-.081217449 .23730469-.022949219 .22753906 .03531901 .22151692 .09423828 .21923828 .1538086 .21695964 .2133789 .21695964 .27067057 .21923828 .3256836 .22151692 .38069663 .22363281 .4280599 .22558594 .46777345L.0390625 .4345703Z"/>
<path id="font_2_53" d="M.0078125 .49804688C.0078125 .50651046 .010253906 .51383468 .015136719 .52001956 .020019532 .5262044 .025878907 .5309245 .032714845 .5341797 .03955078 .5374349 .04638672 .538737 .053222658 .53808596 .060058595 .5374349 .06575521 .5341797 .0703125 .5283203L.18945313 .11230469C.19466146 .12207031 .20019531 .13671875 .20605469 .15625 .21191406 .17578125 .2179362 .19807942 .2241211 .22314453 .23030599 .24820964 .23632813 .2747396 .2421875 .30273438 .24804688 .33072917 .25358073 .3580729 .25878907 .38476563 .2639974 .41145835 .2685547 .4363607 .27246095 .45947267 .2763672 .48258464 .27929688 .5019531 .28125 .5175781 .28385417 .5266927 .28841148 .5335286 .29492188 .53808596 .30143229 .54264327 .30826823 .5449219 .3154297 .5449219 .32259117 .5449219 .3292643 .54264327 .33544923 .53808596 .34163413 .5335286 .3453776 .5266927 .3466797 .5175781 .34602867 .5026042 .34309898 .4794922 .33789063 .4482422 .33268229 .4169922 .3256836 .38248698 .31689454 .34472657 .30810548 .30696617 .29833985 .2680664 .28759767 .22802735 .27685548 .18798828 .26578776 .15152996 .25439454 .118652347 .2430013 .08577474 .23160808 .05875651 .22021485 .037597658 .20882161 .016438803 .1985677 .005859375 .18945313 .005859375 .18033855 .005859375 .17122396 .014322917 .16210938 .03125 .1529948 .048177083 .14355469 .07047526 .13378906 .09814453 .12402344 .1258138 .114095058 .15722656 .104003909 .19238281 .09391276 .22753906 .08365885 .26334635 .07324219 .2998047 .06282552 .33626304 .052083333 .37174479 .041015626 .40625 .029947916 .44075523 .018880209 .47135417 .0078125 .49804688Z"/>
<path id="font_2_41" d="M.12890625-.0009765625C.10872396-.0009765625 .091145839 .0063476564 .076171878 .020996094 .061197919 .03564453 .049153646 .05517578 .040039064 .079589847 .030924479 .104003909 .024251303 .13167317 .020019532 .16259766 .01578776 .19352214 .014160156 .22542317 .015136719 .25830079 .016113282 .29117839 .01953125 .32340495 .025390625 .35498048 .03125 .386556 .03955078 .4148763 .05029297 .4399414 .061035158 .4650065 .07405599 .4856771 .08935547 .5019531 .104654949 .5182292 .12207031 .52734377 .14160156 .5292969 .16438802 .53190109 .18457031 .5262044 .20214844 .51220706 .21972656 .49820964 .234375 .4790039 .24609375 .45458985 .2578125 .43017579 .26660157 .40185548 .27246095 .3696289 .2783203 .33740235 .28125 .30452476 .28125 .2709961 .28125 .23746746 .27815757 .20442708 .27197267 .171875 .26578776 .13932292 .25634767 .110188808 .24365235 .084472659 .23095703 .05875651 .21516927 .038085939 .19628906 .022460938 .17740886 .0068359377 .15494792-.0009765625 .12890625-.0009765625M.14648438 .4716797C.13476563 .4716797 .12434896 .4658203 .115234378 .45410157 .10611979 .4423828 .09830729 .42708335 .091796878 .40820313 .08528646 .3893229 .08024088 .36783854 .076660159 .34375 .07307943 .31966148 .07080078 .29492188 .06982422 .26953126 .068847659 .24414063 .069498699 .21940105 .071777347 .1953125 .07405599 .17122396 .07763672 .14957683 .08251953 .1303711 .087402347 .11116537 .09407552 .09554037 .10253906 .083496097 .1110026 .07145182 .12076823 .065104167 .13183594 .064453128 .15071614 .06315104 .16715496 .07242838 .18115235 .092285159 .19514974 .11214193 .20605469 .13720703 .21386719 .16748047 .22167969 .1977539 .22639974 .23063152 .22802735 .26611329 .22965496 .30159507 .22786458 .3346354 .22265625 .36523438 .21744792 .39583335 .2084961 .42138673 .19580078 .44189454 .18310547 .46240235 .16666667 .47233073 .14648438 .4716797Z"/>
<path id="font_2_57" d="M.05078125 .01171875C.045572919 .049479169 .041341146 .08984375 .038085939 .1328125 .03483073 .17578125 .032552083 .21923828 .03125 .2631836 .029947916 .3071289 .029296875 .35058595 .029296875 .3935547 .029296875 .43652345 .029622397 .47688804 .030273438 .51464846 .03873698 .5296224 .049316408 .5371094 .06201172 .5371094 .07470703 .5371094 .08496094 .52766928 .09277344 .50878909 .09082031 .47884117 .09000651 .44384767 .09033203 .4038086 .090657558 .36376954 .09163412 .32307945 .09326172 .28173829 .09488932 .24039714 .09700521 .20084636 .099609378 .16308594 .10221354 .12532552 .10481771 .09375 .107421878 .068359378L.2734375 .12597656C.28125 .12597656 .2879232 .12011719 .29345704 .10839844 .29899089 .09667969 .30240885 .0859375 .30371095 .076171878 .28873698 .068359378 .26871745 .05908203 .24365235 .048339845 .21858724 .037597658 .19319661 .028157553 .16748047 .020019532 .14176433 .011881511 .118001308 .0063476564 .096191409 .0034179688 .07438151 .00048828127 .059244794 .0032552083 .05078125 .01171875Z"/>
<path id="font_2_3" d=""/>
<path id="font_2_35" d="M.43945313 .19628906C.43229167 .19628906 .42692057 .19921875 .42333985 .20507813 .41975913 .2109375 .417806 .2179362 .41748048 .22607422 .41715495 .23421224 .4189453 .2421875 .42285157 .25 .4267578 .2578125 .43326823 .26367188 .4423828 .26757813 .4781901 .26497398 .5100911 .2644857 .53808596 .26611329 .56608077 .26774089 .59000656 .2685547 .6098633 .2685547 .62972006 .2685547 .6456706 .26627604 .65771487 .26171876 .6697591 .25716148 .6772461 .24723308 .6801758 .2319336 .68310549 .21663411 .6818034 .19482422 .67626956 .1665039 .67073568 .1381836 .66048178 .0999349 .6455078 .051757814 .6201172-.015950522 .5875651-.06738281 .54785159-.10253906 .508138-.13769531 .46614585-.15917969 .421875-.16699219 .37760417-.17480469 .33284507-.17024739 .28759767-.15332031 .24235027-.13639324 .20133464-.109375 .16455078-.072265628 .12776692-.03515625 .09700521 .0107421879 .072265628 .06542969 .047526044 .12011719 .033528646 .18098958 .030273438 .24804688 .027669272 .30273438 .030110678 .35595704 .037597658 .40771485 .045084638 .45947267 .056966146 .5076497 .07324219 .5522461 .08951823 .59684249 .10970052 .63688156 .13378906 .6723633 .15787761 .70784506 .18489583 .7369792 .21484375 .7597656 .24479167 .78255209 .277181 .79801437 .31201173 .80615237 .34684245 .81429037 .38313804 .81315109 .42089845 .8027344 .4404297 .8313802 .46191407 .851888 .48535157 .8642578 .50878909 .8766276 .5315755 .8833008 .55371096 .88427737 .5758464 .8852539 .5961914 .8819987 .6147461 .8745117 .6333008 .8670247 .64746096 .85807296 .65722659 .84765627 .66048178 .84375 .66227218 .8387044 .66259768 .83251956 .66292318 .82633468 .6617839 .820638 .6591797 .8154297 .6565755 .8102214 .65266928 .80647787 .64746096 .8041992 .6422526 .8019206 .63639327 .8027344 .6298828 .8066406 .616862 .8144531 .6031901 .8208008 .5888672 .8256836 .57454428 .8305664 .5603841 .83251956 .5463867 .83154299 .53238937 .8305664 .5188802 .82633468 .5058594 .81884768 .49283854 .81136068 .48111979 .7994792 .47070313 .7832031 .49283854 .7714844 .51204428 .7555339 .5283203 .73535159 .5445964 .71516928 .5576172 .69352218 .5673828 .67041018 .57714846 .64729818 .5834961 .62353518 .5864258 .5991211 .58935549 .57470706 .5882161 .5524089 .5830078 .53222659 .5777995 .51204428 .56852218 .49479167 .5551758 .48046876 .5418294 .46614585 .52408859 .45735679 .5019531 .45410157 .47851563 .45540367 .45947267 .4620768 .44482423 .4741211 .43017579 .48616538 .4189453 .50130209 .4111328 .51953127 .4033203 .53776046 .39794923 .55777999 .39501954 .57958987 .39208985 .6013997 .390625 .6227214 .390625 .6435547 .390625 .664388 .3914388 .68359377 .3930664 .7011719 .394694 .71875 .39615885 .7320964 .39746095 .74121096 .36816407 .7483724 .339681 .74658206 .31201173 .73583987 .28434245 .72509768 .25846354 .7081706 .234375 .6850586 .21028646 .6619466 .18880208 .6336263 .16992188 .60009768 .15104167 .56656906 .1352539 .53011068 .122558597 .49072267 .10986328 .45133464 .10091146 .410319 .095703128 .36767579 .09049479 .32503257 .09016927 .28320313 .09472656 .2421875 .09928385 .1953125 .109375 .15201824 .125 .11230469 .140625 .07259115 .15983074 .037597658 .18261719 .0073242189 .20540364-.022949219 .23063152-.047851564 .25830079-.06738281 .28597007-.08691406 .31445313-.09977213 .34375-.10595703 .37304688-.11214193 .402181-.111328128 .43115235-.103515628 .4601237-.095703128 .48697917-.079427089 .51171877-.0546875 .5364583-.029947916 .55810549 .00390625 .57666018 .046875 .59521487 .08984375 .6090495 .14290364 .61816409 .20605469L.43945313 .19628906M.45117188 .7294922C.44856773 .7203776 .4464518 .7083333 .44482423 .6933594 .44319663 .67838546 .4423828 .6624349 .4423828 .6455078 .4423828 .62858077 .44319663 .6118164 .44482423 .59521487 .4464518 .5786133 .44954429 .56363937 .45410157 .55029299 .45865885 .5369466 .46451823 .52652999 .4716797 .51904299 .47884117 .51155599 .48795573 .50878909 .49902345 .5107422 .51464846 .5211589 .52457687 .5371094 .5288086 .55859377 .53304037 .5800781 .53271487 .60221359 .52783206 .625 .5229492 .64778646 .51383468 .6691081 .5004883 .68896487 .48714195 .7088216 .47070313 .72233077 .45117188 .7294922Z"/>
<path id="font_2_24" d="M.028320313 .0087890629C.030273438 .028320313 .03173828 .053548177 .032714845 .084472659 .033691408 .11539713 .034179689 .1484375 .034179689 .18359375 .034179689 .21875 .033691408 .25423179 .032714845 .29003907 .03173828 .32584635 .029947916 .35872398 .02734375 .38867188 .024088541 .39257813 .025553385 .39860026 .03173828 .40673829 .037923177 .4148763 .045410158 .4207357 .05419922 .4243164 .06298828 .42789714 .07145182 .42740885 .079589847 .42285157 .08772787 .41829429 .0921224 .40559898 .09277344 .38476563 .09472656 .3606771 .09586588 .33398438 .096191409 .3046875 .09651693 .27539063 .096354167 .24495442 .095703128 .2133789 .095052089 .18180339 .09488932 .14973958 .095214847 .1171875 .09554037 .084635417 .09667969 .053059896 .09863281 .022460938 .09667969 .0126953129 .09261068 .0060221354 .08642578 .0024414063 .08024088-.0011393229 .07356771-.003092448 .06640625-.0034179688 .059244794-.0037434896 .052083333-.0026041668 .044921876 0 .037760419 .0026041668 .032226564 .005533854 .028320313 .0087890629M.05859375 .4638672C.047526044 .4638672 .03873698 .4679362 .032226564 .47607423 .025716147 .48421226 .022298178 .4930013 .021972657 .5024414 .021647135 .51188156 .024251303 .52034506 .029785157 .52783206 .03531901 .53531906 .044596357 .538737 .057617189 .53808596 .0686849 .53808596 .07779948 .53434249 .08496094 .52685549 .0921224 .51936849 .096191409 .51090499 .09716797 .50146487 .09814453 .49202476 .095703128 .48339845 .08984375 .47558595 .083984378 .46777345 .07356771 .4638672 .05859375 .4638672Z"/>
<path id="font_2_25" d="M.013671875 .21972656C.012369792 .24511719 .016276041 .27408854 .025390625 .30664063 .034505208 .33919273 .048339845 .370931 .06689453 .40185548 .08544922 .43277995 .10888672 .46044923 .13720703 .48486329 .16552735 .50927737 .1985677 .5253906 .23632813 .5332031 .2454427 .53255209 .25195313 .52734377 .25585938 .5175781 .25976563 .5078125 .25716148 .49641929 .24804688 .48339845 .19401042 .4547526 .1508789 .41992188 .118652347 .37890626 .08642578 .33789063 .0703125 .2874349 .0703125 .22753906 .0703125 .21126302 .0719401 .19417317 .07519531 .17626953 .07845052 .15836589 .08317057 .14176433 .08935547 .12646485 .09554037 .11116537 .1031901 .09814453 .11230469 .087402347 .12141927 .076660159 .1319987 .06982422 .14404297 .06689453 .15608724 .063964847 .1694336 .06608073 .18408203 .07324219 .19873047 .08040365 .21484375 .09440104 .23242188 .115234378 .23828125 .12044271 .24348958 .12158203 .24804688 .118652347 .25260417 .115722659 .25569663 .110839847 .25732423 .104003909 .2589518 .09716797 .2591146 .08935547 .2578125 .080566409 .2565104 .071777347 .2529297 .064453128 .24707031 .05859375 .22428386 .033203126 .20247396 .016438803 .18164063 .008300781 .1608073 .00016276042 .14160156-.0016276041 .12402344 .0029296876 .10644531 .007486979 .090657558 .017252604 .076660159 .032226564 .06266276 .04720052 .05094401 .065104167 .041503908 .0859375 .0320638 .106770839 .024902344 .12890625 .020019532 .15234375 .015136719 .17578125 .013020833 .19824219 .013671875 .21972656Z"/>
<path id="font_2_33" d="M.033203126 .45410157C.029296875 .45865885 .026204428 .46435548 .023925782 .4711914 .021647135 .47802735 .020996094 .48470054 .021972657 .49121095 .022949219 .49772135 .025553385 .50341799 .029785157 .5083008 .034016927 .5131836 .040690107 .5159505 .049804689 .51660159 .06542969 .51660159 .08138021 .508138 .09765625 .49121095 .11393229 .47428385 .1303711 .45263673 .14697266 .42626954 .16357422 .39990235 .17985027 .37109376 .19580078 .33984376 .2117513 .30859376 .22705078 .27864585 .24169922 .25 .25634767 .22135417 .27018229 .19596355 .28320313 .17382813 .29622398 .1516927 .3076172 .13671875 .3173828 .12890625 .32259117 .1595052 .32486979 .19417317 .32421876 .23291016 .32356773 .27164714 .32177735 .31038413 .31884767 .3491211 .31591798 .38785807 .31266276 .4243164 .30908204 .4584961 .3055013 .49267579 .3033854 .5205078 .30273438 .5419922 .30273438 .5498047 .30501304 .55582687 .3095703 .5600586 .3141276 .56429037 .3194987 .56624349 .3256836 .56591799 .3318685 .56559249 .3383789 .5628255 .34521485 .5576172 .35205079 .5524089 .3577474 .5442708 .3623047 .5332031 .3623047 .5266927 .36295573 .51448568 .3642578 .49658204 .3655599 .47867839 .36735026 .45703126 .3696289 .43164063 .37190757 .40625 .37402345 .37858073 .37597657 .3486328 .3779297 .3186849 .37923179 .28857423 .3798828 .25830079 .38053385 .22802735 .3803711 .19873047 .37939454 .17041016 .37841798 .14208985 .3761393 .1171875 .3725586 .095703128 .36897788 .07421875 .36360679 .057128908 .3564453 .044433595 .34928385 .03173828 .33984376 .025716147 .328125 .026367188 .31640626 .025065104 .30419923 .030924479 .2915039 .043945314 .2788086 .056966146 .26611329 .07438151 .25341798 .096191409 .24072266 .118001308 .22770183 .14257813 .21435547 .16992188 .20100911 .19726563 .18766277 .2241211 .1743164 .25048829 .16097005 .27685548 .14778646 .30110679 .13476563 .3232422 .12174479 .3453776 .10872396 .36263023 .095703128 .375V.01171875C.09440104 .0032552083 .09033203-.003092448 .083496097-.0073242189 .076660159-.011555989 .06933594-.013183594 .061523439-.012207031 .053710939-.011230469 .04654948-.007975261 .040039064-.0024414063 .033528646 .003092448 .030273438 .0113932299 .030273438 .022460938L.033203126 .45410157Z"/>
<path id="font_2_30" d="M.017578125 .52734377C.018880209 .546875 .024414063 .5598958 .034179689 .56640627 .043945314 .5729167 .057942708 .5703125 .076171878 .55859377L.07421875 .5048828C.10091146 .507487 .13069661 .5058594 .16357422 .5 .19645183 .49414063 .22721355 .48388673 .25585938 .46923829 .28450523 .45458985 .30859376 .43554688 .328125 .41210938 .34765626 .38867188 .3577474 .36035157 .35839845 .32714845 .3564453 .2828776 .34651695 .24316406 .32861329 .20800781 .31070964 .17285156 .28841148 .1414388 .26171876 .11376953 .23502605 .08610026 .20589192 .061360677 .1743164 .03955078 .14274089 .017740885 .111979167-.001953125 .08203125-.01953125 .076171878-.022135416 .07080078-.021647135 .06591797-.018066407 .061035158-.014485677 .057128908-.009114583 .05419922-.001953125 .05126953 .0052083337 .049316408 .0133463549 .048339845 .022460938 .04736328 .03157552 .048177083 .040364583 .05078125 .048828126L.017578125 .52734377M.083984378 .4375C.083333339 .42773438 .083333339 .41308595 .083984378 .3935547 .084635417 .37402345 .08561198 .35188804 .08691406 .32714845 .08821615 .30240885 .08968099 .27652995 .091308597 .24951172 .092936199 .22249349 .095052089 .19677735 .09765625 .17236328 .100260417 .14794922 .103027347 .12646485 .10595703 .107910159 .10888672 .08935547 .11230469 .076171878 .11621094 .068359378 .13118489 .078125 .14957683 .092447917 .17138672 .111328128 .19319661 .13020833 .21386719 .1508789 .23339844 .17333985 .2529297 .19580078 .2693685 .21907552 .28271485 .24316406 .2960612 .2672526 .30208335 .28938804 .30078126 .3095703 .30078126 .32845054 .2960612 .3453776 .2866211 .36035157 .277181 .37532554 .26546226 .38834635 .25146485 .39941407 .23746746 .41048179 .22184246 .4194336 .20458985 .42626954 .18733724 .43310548 .17073567 .43815104 .15478516 .44140626 .13883464 .44466148 .12451172 .44580079 .111816409 .44482423 .099121097 .44384767 .08984375 .44140626 .083984378 .4375Z"/>
  </defs>
  <use data-text="L" xlink:href="#font_2_51" transform="matrix(70,0,0,-70,12.00,70)" fill="#f7931e"/>
  <use data-text="a" xlink:href="#font_2_31" transform="matrix(70,0,0,-70,56.59,70)" fill="#f7931e"/>
  <use data-text="T" xlink:href="#font_2_19" transform="matrix(70,0,0,-70,119.71,70)" fill="#f7931e"/>
  <use data-text="a" xlink:href="#font_2_31" transform="matrix(70,0,0,-70,153.96,70)" fill="#f7931e"/>
  <use data-text="v" xlink:href="#font_2_53" transform="matrix(70,0,0,-70,182.45,70)" fill="#f7931e"/>
  <use data-text="o" xlink:href="#font_2_41" transform="matrix(70,0,0,-70,208.00,70)" fill="#f7931e"/>
  <use data-text="l" xlink:href="#font_2_57" transform="matrix(70,0,0,-70,229.98,70)" fill="#f7931e"/>
  <use data-text="a" xlink:href="#font_2_31" transform="matrix(70,0,0,-70,253.14,70)" fill="#f7931e"/>
  <use data-text="G" xlink:href="#font_2_35" transform="matrix(70,0,0,-70,298.36,70)" fill="#f7931e"/>
  <use data-text="i" xlink:href="#font_2_24" transform="matrix(70,0,0,-70,349.15,70)" fill="#f7931e"/>
  <use data-text="o" xlink:href="#font_2_41" transform="matrix(70,0,0,-70,359.41,70)" fill="#f7931e"/>
  <use data-text="c" xlink:href="#font_2_25" transform="matrix(70,0,0,-70,381.39,70)" fill="#f7931e"/>
  <use data-text="o" xlink:href="#font_2_41" transform="matrix(70,0,0,-70,401.45,70)" fill="#f7931e"/>
  <use data-text="n" xlink:href="#font_2_33" transform="matrix(70,0,0,-70,423.43,70)" fill="#f7931e"/>
  <use data-text="d" xlink:href="#font_2_30" transform="matrix(70,0,0,-70,451.71,70)" fill="#f7931e"/>
  <use data-text="a" xlink:href="#font_2_31" transform="matrix(70,0,0,-70,475.41,70)" fill="#f7931e"/>
</svg>